<svg width="11" height="12" viewBox="0 0 11 12" fill="none" xmlns="http://www.w3.org/2000/svg">
<path id="Vector (Stroke)" fill-rule="evenodd" clip-rule="evenodd" d="M5.49992 0.583313C5.91413 0.583313 6.24992 0.919099 6.24992 1.33331V5.24998H10.1666C10.5808 5.24998 10.9166 5.58577 10.9166 5.99998C10.9166 6.41419 10.5808 6.74998 10.1666 6.74998H6.24992V10.6666C6.24992 11.0809 5.91413 11.4166 5.49992 11.4166C5.08571 11.4166 4.74992 11.0809 4.74992 10.6666V6.74998H0.833252C0.419038 6.74998 0.083252 6.41419 0.083252 5.99998C0.083252 5.58577 0.419038 5.24998 0.833252 5.24998H4.74992V1.33331C4.74992 0.919099 5.08571 0.583313 5.49992 0.583313Z" fill="white"/>
</svg>
