<svg width="184" height="176" viewBox="0 0 184 176" fill="none" xmlns="http://www.w3.org/2000/svg">
<path fill-rule="evenodd" clip-rule="evenodd" d="M35.5 147.6C35.5 140.144 41.5442 134.1 49 134.1H135.103C142.558 134.1 148.603 140.144 148.603 147.6V162.499C148.603 169.955 142.558 175.999 135.103 175.999H49C41.5442 175.999 35.5 169.955 35.5 162.499V147.6Z" fill="white"/>
<path opacity="0.3" fill-rule="evenodd" clip-rule="evenodd" d="M74.8641 144.969C74.8641 143.756 75.8473 142.773 77.0602 142.773H136.017C137.23 142.773 138.214 143.756 138.214 144.969C138.214 146.182 137.23 147.165 136.017 147.165H77.0602C75.8473 147.165 74.8641 146.182 74.8641 144.969Z" fill="#1B3554"/>
<path opacity="0.3" fill-rule="evenodd" clip-rule="evenodd" d="M74.8641 152.975C74.8641 151.763 75.8473 150.779 77.0602 150.779H119.324C120.537 150.779 121.521 151.763 121.521 152.975C121.521 154.188 120.537 155.172 119.324 155.172H77.0602C75.8473 155.172 74.8641 154.188 74.8641 152.975Z" fill="#1B3554"/>
<path opacity="0.15" fill-rule="evenodd" clip-rule="evenodd" d="M74.8641 164.985C74.8641 163.772 75.8473 162.789 77.0602 162.789H90.784C91.9968 162.789 92.9801 163.772 92.9801 164.985C92.9801 166.198 91.9968 167.181 90.784 167.181H77.0602C75.8473 167.181 74.8641 166.198 74.8641 164.985Z" fill="#1B3554"/>
<ellipse cx="55.7899" cy="149.686" rx="10.2821" ry="10.2486" fill="#BAC2CB"/>
<path d="M54.1409 153.488C54.3365 153.684 54.5922 153.782 54.8484 153.782C55.1046 153.782 55.3604 153.684 55.556 153.488L60.56 148.484C60.9509 148.094 60.9509 147.46 60.56 147.069C60.1692 146.678 59.5357 146.678 59.1449 147.069L54.8484 151.365L52.5536 149.071C52.1628 148.68 51.5293 148.68 51.1384 149.071C50.7476 149.462 50.7476 150.095 51.1384 150.486L54.1409 153.488Z" fill="white"/>
<path fill-rule="evenodd" clip-rule="evenodd" d="M35.5 98.896C35.5 91.4402 41.5442 85.396 49 85.396H135.103C142.558 85.396 148.603 91.4402 148.603 98.896V113.795C148.603 121.251 142.558 127.295 135.103 127.295H49C41.5442 127.295 35.5 121.251 35.5 113.795V98.896Z" fill="white"/>
<path opacity="0.3" fill-rule="evenodd" clip-rule="evenodd" d="M74.8641 96.2655C74.8641 95.0526 75.8473 94.0693 77.0602 94.0693H136.017C137.23 94.0693 138.214 95.0526 138.214 96.2655C138.214 97.4783 137.23 98.4616 136.017 98.4616H77.0602C75.8473 98.4616 74.8641 97.4783 74.8641 96.2655Z" fill="#1B3554"/>
<path opacity="0.3" fill-rule="evenodd" clip-rule="evenodd" d="M74.8641 104.272C74.8641 103.059 75.8473 102.076 77.0602 102.076H119.324C120.537 102.076 121.521 103.059 121.521 104.272C121.521 105.485 120.537 106.468 119.324 106.468H77.0602C75.8473 106.468 74.8641 105.485 74.8641 104.272Z" fill="#1B3554"/>
<path opacity="0.15" fill-rule="evenodd" clip-rule="evenodd" d="M74.8641 116.281C74.8641 115.068 75.8473 114.085 77.0602 114.085H90.784C91.9968 114.085 92.9801 115.068 92.9801 116.281C92.9801 117.494 91.9968 118.477 90.784 118.477H77.0602C75.8473 118.477 74.8641 117.494 74.8641 116.281Z" fill="#1B3554"/>
<ellipse cx="55.7899" cy="100.982" rx="10.2821" ry="10.2486" fill="#BAC2CB"/>
<path d="M54.1409 104.785C54.3365 104.98 54.5922 105.078 54.8484 105.078C55.1046 105.078 55.3604 104.98 55.556 104.785L60.56 99.7808C60.9509 99.3899 60.9509 98.7564 60.56 98.3656C60.1692 97.9748 59.5357 97.9748 59.1449 98.3656L54.8484 102.662L52.5536 100.367C52.1628 99.9764 51.5293 99.9764 51.1384 100.367C50.7476 100.758 50.7476 101.392 51.1384 101.782L54.1409 104.785Z" fill="white"/>
<g filter="url(#filter0_d_95_6627)">
<path fill-rule="evenodd" clip-rule="evenodd" d="M45.1742 16.0638L139.596 29.4657C144.57 30.2269 148.603 33.7032 148.603 37.2248V60.7488C148.603 64.2704 144.57 67.7416 139.596 68.4966L45.8414 78.4487C40.867 79.0841 35.5 74.9088 35.5 68.3054V26.1969C35.5 19.5935 40.1998 15.4228 45.1742 16.0638Z" fill="white"/>
</g>
<path opacity="0.3" fill-rule="evenodd" clip-rule="evenodd" d="M77.0602 35.2682L136.017 39.3677C137.23 39.4562 138.214 40.2851 138.214 41.2189C138.214 42.1526 137.23 42.8632 136.017 42.806L77.0602 40.1603C75.8473 40.1086 74.8641 38.9602 74.8641 37.5951C74.8641 36.23 75.8473 35.1881 77.0602 35.2682Z" fill="#1B3554"/>
<path opacity="0.3" fill-rule="evenodd" clip-rule="evenodd" d="M77.0602 44.1856L119.324 45.2103C120.537 45.2408 121.521 46.1183 121.521 47.1701C121.521 48.222 120.537 49.0748 119.324 49.0749L77.0602 49.0777C75.8473 49.0777 74.8641 47.9712 74.8641 46.6061C74.8641 45.241 75.8473 44.1573 77.0602 44.1856Z" fill="#1B3554"/>
<path opacity="0.15" fill-rule="evenodd" clip-rule="evenodd" d="M77.0602 57.5617L90.784 56.9963C91.9968 56.9457 92.9801 57.915 92.9801 59.1614C92.9801 60.4078 91.9968 61.483 90.784 61.5628L77.0602 62.4538C75.8473 62.5315 74.8641 61.4877 74.8641 60.1227C74.8641 58.7576 75.8473 57.611 77.0602 57.5617Z" fill="#1B3554"/>
<path fill-rule="evenodd" clip-rule="evenodd" d="M57.2295 54.9207C63.7032 54.7844 68.9511 49.2837 68.9511 42.6361C68.9511 35.9885 63.7032 30.2305 57.2295 29.7801C50.7558 29.3351 45.5078 34.8401 45.5078 42.0709C45.5078 49.3017 50.7558 55.0555 57.2295 54.9207Z" fill="#7DFBA5"/>
<path d="M55.3496 47.0008C55.5726 47.2438 55.8642 47.366 56.1562 47.3678C56.4483 47.3696 56.7398 47.2514 56.9629 47.0127L62.6675 41.0376C63.1131 40.5816 63.1131 39.8211 62.6675 39.3359C62.222 38.8491 61.4998 38.8219 61.0543 39.2779L56.1562 44.3925L53.5401 41.4977C53.0945 40.9995 52.3723 40.979 51.9268 41.4548C51.4813 41.9322 51.4813 42.7251 51.9268 43.2234L55.3496 47.0008Z" fill="white"/>
<defs>
<filter id="filter0_d_95_6627" x="0.5" y="-0.000976562" width="183.103" height="132.513" filterUnits="userSpaceOnUse" color-interpolation-filters="sRGB">
<feFlood flood-opacity="0" result="BackgroundImageFix"/>
<feColorMatrix in="SourceAlpha" type="matrix" values="0 0 0 0 0 0 0 0 0 0 0 0 0 0 0 0 0 0 127 0" result="hardAlpha"/>
<feOffset dy="19"/>
<feGaussianBlur stdDeviation="17.5"/>
<feColorMatrix type="matrix" values="0 0 0 0 0.226735 0 0 0 0 0.437054 0 0 0 0 0.687819 0 0 0 0.189057 0"/>
<feBlend mode="normal" in2="BackgroundImageFix" result="effect1_dropShadow_95_6627"/>
<feBlend mode="normal" in="SourceGraphic" in2="effect1_dropShadow_95_6627" result="shape"/>
</filter>
</defs>
</svg>
